<?xml version="1.0" encoding="UTF-8" standalone="no"?>
<!-- Created with Inkscape (http://www.inkscape.org/) -->

<svg
   xmlns:dc="http://purl.org/dc/elements/1.1/"
   xmlns:cc="http://creativecommons.org/ns#"
   xmlns:rdf="http://www.w3.org/1999/02/22-rdf-syntax-ns#"
   xmlns:svg="http://www.w3.org/2000/svg"
   xmlns="http://www.w3.org/2000/svg"
   xmlns:sodipodi="http://sodipodi.sourceforge.net/DTD/sodipodi-0.dtd"
   xmlns:inkscape="http://www.inkscape.org/namespaces/inkscape"
   width="297mm"
   height="210mm"
   viewBox="0 0 297 210"
   version="1.1"
   id="svg8"
   inkscape:version="0.92.4 (5da689c313, 2019-01-14)"
   sodipodi:docname="TUGAS RESPONSI DESAIN GRAFIS.svg">
  <defs
     id="defs2" />
  <sodipodi:namedview
     id="base"
     pagecolor="#ffffff"
     bordercolor="#666666"
     borderopacity="1.0"
     inkscape:pageopacity="0.0"
     inkscape:pageshadow="2"
     inkscape:zoom="0.49497475"
     inkscape:cx="653.67566"
     inkscape:cy="384.35458"
     inkscape:document-units="mm"
     inkscape:current-layer="layer1"
     showgrid="false"
     inkscape:window-width="1366"
     inkscape:window-height="745"
     inkscape:window-x="-8"
     inkscape:window-y="-8"
     inkscape:window-maximized="1" />
  <metadata
     id="metadata5">
    <rdf:RDF>
      <cc:Work
         rdf:about="">
        <dc:format>image/svg+xml</dc:format>
        <dc:type
           rdf:resource="http://purl.org/dc/dcmitype/StillImage" />
        <dc:title></dc:title>
      </cc:Work>
    </rdf:RDF>
  </metadata>
  <g
     inkscape:label="Layer 1"
     inkscape:groupmode="layer"
     id="layer1"
     transform="translate(0,-87)">
    <rect
       style="opacity:1;fill:#000000;fill-opacity:1;stroke:none;stroke-width:7;stroke-miterlimit:4;stroke-dasharray:none;stroke-dashoffset:0;stroke-opacity:1"
       id="rect815"
       width="296.93643"
       height="209.40565"
       x="0.52916664"
       y="87.856224" />
    <g
       id="g874">
      <text
         id="text819"
         y="177.29361"
         x="170.75592"
         style="font-style:normal;font-variant:normal;font-weight:600;font-stretch:normal;font-size:40.70055389px;line-height:1.25;font-family:'Adobe Fan Heiti Std';-inkscape-font-specification:'Adobe Fan Heiti Std, Semi-Bold';font-variant-ligatures:normal;font-variant-caps:normal;font-variant-numeric:normal;font-feature-settings:normal;text-align:end;letter-spacing:0px;word-spacing:0px;writing-mode:lr-tb;text-anchor:end;fill:#ffffff;fill-opacity:1;stroke:none;stroke-width:0.42396665"
         xml:space="preserve"><tspan
           style="font-style:normal;font-variant:normal;font-weight:600;font-stretch:normal;font-size:40.70055389px;font-family:'Adobe Fan Heiti Std';-inkscape-font-specification:'Adobe Fan Heiti Std, Semi-Bold';font-variant-ligatures:normal;font-variant-caps:normal;font-variant-numeric:normal;font-feature-settings:normal;text-align:end;writing-mode:lr-tb;text-anchor:end;fill:#ffffff;stroke-width:0.42396665"
           y="177.29361"
           x="170.75592"
           id="tspan817"
           sodipodi:role="line">Stop</tspan><tspan
           id="tspan821"
           style="font-style:normal;font-variant:normal;font-weight:600;font-stretch:normal;font-size:40.70055389px;font-family:'Adobe Fan Heiti Std';-inkscape-font-specification:'Adobe Fan Heiti Std, Semi-Bold';font-variant-ligatures:normal;font-variant-caps:normal;font-variant-numeric:normal;font-feature-settings:normal;text-align:end;writing-mode:lr-tb;text-anchor:end;fill:#ffffff;stroke-width:0.42396665"
           y="228.1693"
           x="170.75592"
           sodipodi:role="line">Bullying</tspan></text>
      <g
         transform="translate(367.20016,-135.468)"
         id="g846">
        <circle
           style="opacity:1;fill:#ff0000;fill-opacity:1;stroke:none;stroke-width:7.4267025;stroke-miterlimit:4;stroke-dasharray:none;stroke-dashoffset:0;stroke-opacity:1"
           id="path836"
           cx="-141.7142"
           cy="328.3989"
           r="46.517929" />
        <circle
           r="40.821423"
           cy="328.3989"
           cx="-141.7142"
           id="circle838"
           style="opacity:1;fill:#ffffff;fill-opacity:1;stroke:none;stroke-width:6.51724148;stroke-miterlimit:4;stroke-dasharray:none;stroke-dashoffset:0;stroke-opacity:1" />
        <path
           style="fill:#000000;stroke-width:0.26458332"
           d="m -144.6481,360.36253 c -2.0083,-0.6094 -3.31165,-1.82064 -3.82722,-3.55676 -0.68395,-2.30311 -0.36003,-4.43166 0.95555,-6.27924 0.30998,-0.43532 0.4891,-0.866 0.39804,-0.95706 -0.24927,-0.24928 -0.55242,0.1588 -1.52147,2.04811 -0.77236,1.50584 -0.88223,1.97145 -0.88317,3.7427 l -0.001,2.02291 -1.19062,-0.67739 c -1.6236,-0.92372 -1.72517,-1.04011 -1.08497,-1.24331 1.02706,-0.32597 0.56804,-0.66991 -0.89405,-0.66991 -0.79742,0 -1.92203,0.18893 -2.49913,0.41984 -0.9646,0.38596 -1.17295,0.38389 -2.58155,-0.0256 -2.82664,-0.82172 -4.47061,-2.05118 -5.525,-4.13193 -0.83952,-1.65672 -0.83619,-3.03588 0.0249,-10.28522 1.05721,-8.90098 2.16025,-11.71107 5.54087,-14.11587 2.08581,-1.48374 2.91728,-1.74385 5.60305,-1.75281 1.60432,-0.005 2.12442,0.11628 3.42702,0.80149 1.48544,0.78139 1.63274,0.80518 4.50416,0.7276 2.54508,-0.0688 3.03748,-0.0137 3.45214,0.38588 0.26601,0.25634 1.23287,1.00397 2.14858,1.6614 0.91571,0.65743 1.73212,1.37043 1.81424,1.58445 0.25489,0.66423 0.6903,0.43318 0.51322,-0.27234 -0.22407,-0.89277 0.24866,-0.85914 1.73169,0.12318 1.27289,0.84312 2.73659,2.6733 3.01035,3.76405 0.29064,1.15797 -0.3189,2.72475 -1.46167,3.75717 -0.58112,0.52501 -1.14553,0.9574 -1.25425,0.96087 -0.10872,0.003 -0.63601,0.10815 -1.17176,0.23263 -0.8193,0.19037 -1.1136,0.12727 -1.85208,-0.39709 -0.4829,-0.34288 -2.14484,-1.10037 -3.6932,-1.68332 -2.204,-0.82978 -3.55389,-1.1481 -6.21771,-1.46623 -1.87138,-0.2235 -3.93829,-0.58086 -4.59313,-0.79414 -0.65485,-0.21329 -2.20266,-0.50587 -3.43959,-0.6502 -1.23692,-0.14432 -2.48708,-0.32633 -2.77812,-0.40446 -0.29104,-0.0781 -0.70776,-0.0248 -0.92604,0.11844 -1.0647,0.69882 1.32335,2.12862 3.83083,2.29364 l 1.59312,0.10484 -1.5875,-0.4792 c -0.87312,-0.26356 -1.82562,-0.61853 -2.11666,-0.78883 -0.89719,-0.52498 2.6485,-0.39884 4.76782,0.16963 1.01572,0.27244 2.91832,0.63766 4.22801,0.81159 3.72622,0.49485 9.0286,2.03657 9.67245,2.81236 0.22634,0.27272 0.0709,0.39133 -0.72334,0.5521 -2.08722,0.42248 -5.4127,0.21174 -8.01643,-0.50801 -1.3788,-0.38115 -2.5595,-0.64039 -2.62379,-0.57611 -0.0643,0.0643 -7.4e-4,0.11688 0.14124,0.11688 0.14196,0 0.48922,0.18694 0.7717,0.41543 0.47965,0.38798 0.43065,0.40581 -0.74155,0.26987 -0.69032,-0.0801 -1.85118,-0.44761 -2.57969,-0.81677 -1.38097,-0.69979 -1.86594,-0.55957 -0.59694,0.17259 1.1539,0.66575 2.61846,1.06178 4.65721,1.25933 l 1.89122,0.18325 -1.05833,0.48743 c -3.64804,1.68012 -4.31677,2.0438 -4.90032,2.66496 -0.5438,0.57885 -0.26562,0.48654 1.7251,-0.57246 2.11367,-1.12442 2.62004,-1.2823 4.62642,-1.44251 2.20224,-0.17585 2.29752,-0.15872 4.23146,0.7604 1.25022,0.59417 2.44328,1.41746 3.24115,2.2366 0.74092,0.76068 1.26265,1.12964 1.26265,0.89295 0,-0.75049 -1.97736,-2.49703 -3.64668,-3.22099 -0.90474,-0.39238 -1.64499,-0.80203 -1.64499,-0.91034 0,-0.23111 1.33955,-0.52766 2.38347,-0.52766 0.4912,0 0.77225,0.16227 0.85961,0.49633 0.0834,0.31905 0.44883,0.54752 1.02304,0.63967 1.86073,0.2986 4.51162,0.99112 5.24439,1.37005 1.61806,0.83673 2.41075,2.79837 1.45225,3.59385 -1.10866,0.92011 -1.46709,2.74585 -0.7763,3.95427 0.87577,1.532 0.073,4.1857 -1.66446,5.50241 -0.51914,0.39341 -1.87299,1.58371 -3.00856,2.64511 -1.13556,1.06139 -2.47962,2.10319 -2.9868,2.3151 -0.9736,0.4068 -3.51907,0.48024 -4.65876,0.13441 z m 6.89462,-23.64334 c 0,-0.19047 -0.1748,-0.57742 -0.38846,-0.85989 -0.46901,-0.62009 -0.51912,-2.05302 -0.0995,-2.84609 0.19532,-0.36916 -0.12231,-0.18532 -0.87931,0.50893 -0.65179,0.59777 -1.35493,1.14702 -1.56253,1.22055 -0.2076,0.0735 -0.29923,0.21831 -0.20361,0.32172 0.0956,0.10341 0.5421,-0.002 0.99219,-0.23515 l 0.81834,-0.42318 v 0.74167 c 0,0.7725 0.64097,1.91775 1.07333,1.91775 0.13727,0 0.24958,-0.15584 0.24958,-0.34631 z m -8.1251,-2.64766 c 0.20085,-0.52342 -0.11084,-2.82687 -0.38252,-2.82687 -0.59122,0 -0.76471,1.4484 -0.3407,2.84428 0.13175,0.43371 0.554,0.42355 0.72322,-0.0174 z m -5.63323,-2.95916 c 0,-1.4059 -0.30183,-1.9001 -0.63315,-1.03669 -0.21514,0.56063 -0.20467,2.09505 0.0158,2.31551 0.43892,0.43892 0.61736,0.0693 0.61736,-1.27882 z m 20.955,22.30438 c -0.43108,-0.43108 -0.40107,-2.19301 0.0523,-3.0697 0.72408,-1.40023 1.25218,-1.65757 3.42487,-1.66891 1.107,-0.006 2.12529,0.059 2.26285,0.14407 0.13756,0.085 0.50495,-0.16939 0.81642,-0.56536 0.46023,-0.58509 0.61052,-0.64838 0.80241,-0.33789 0.19384,0.31363 0.37276,0.25112 0.99931,-0.34915 0.46178,-0.44242 0.92659,-0.66848 1.17694,-0.57241 0.24814,0.0952 0.89856,-0.21129 1.62499,-0.76579 1.64541,-1.25597 3.41973,-1.48949 5.47313,-0.72034 2.01475,0.75467 2.93491,1.76488 3.09144,3.39398 0.10728,1.11645 0.027,1.39535 -0.62422,2.16931 -1.35232,1.60715 -2.60702,1.96577 -7.2838,2.08192 l -4.13774,0.10276 0.12561,-1.28385 0.1256,-1.28385 -0.67585,0.8247 c -0.54231,0.66175 -0.95043,0.86112 -2.06552,1.00905 -0.76433,0.10139 -2.07402,0.41488 -2.91044,0.69665 -1.78839,0.60247 -1.86415,0.60895 -2.27829,0.19481 z m -5.47688,-12.64087 c -0.29104,-0.12848 -0.8923,-0.24197 -1.33614,-0.2522 -0.72934,-0.0168 -1.44198,-0.41431 -1.44198,-0.80433 0,-0.13524 1.25313,-0.14651 4.71476,-0.0424 1.02581,0.0309 1.13422,0.0953 1.05833,0.62968 -0.072,0.50684 -0.2615,0.60331 -1.27517,0.64909 -0.65485,0.0296 -1.42875,-0.0514 -1.7198,-0.17985 z m 2.84427,-11.17886 c -0.78855,-0.84168 -0.75237,-1.3348 0.22695,-3.09346 1.00016,-1.79606 2.28766,-3.1964 2.93885,-3.1964 0.37212,0 0.44717,-0.13999 0.32852,-0.61273 -0.11603,-0.46228 0.25004,-1.20938 1.49089,-3.04271 0.90457,-1.33648 1.75133,-2.42997 1.88168,-2.42997 0.13035,0 0.59934,0.18737 1.0422,0.41638 0.92575,0.47873 1.26386,0.32929 0.72758,-0.32158 -0.33415,-0.40554 -0.30072,-0.43029 0.35917,-0.26594 1.15242,0.28703 0.85642,-0.29819 -0.33073,-0.65387 -1.04739,-0.31381 -1.29806,-0.68151 -0.80246,-1.17712 0.14073,-0.14073 0.68071,-1.12881 1.19994,-2.19572 2.00032,-4.11021 3.93709,-6.1209 5.89586,-6.1209 1.1574,0 2.04684,1.09741 2.01677,2.48837 -0.029,1.34255 -1.21576,3.67237 -2.24326,4.40401 -0.44979,0.32028 -1.0666,1.348 -1.69537,2.8248 -0.5436,1.27675 -1.08861,2.42836 -1.21113,2.55913 -0.12983,0.13858 -0.50048,0.0558 -0.8885,-0.19844 -0.99478,-0.65181 -1.3234,-0.52707 -0.69985,0.26564 0.30364,0.38602 0.48195,0.77198 0.39623,0.8577 -0.0857,0.0857 -0.27188,-0.0515 -0.41372,-0.30498 -0.45521,-0.8134 -0.79001,-0.4911 -0.35789,0.34452 0.40004,0.77361 0.38534,0.85962 -0.37312,2.18282 -0.43426,0.75761 -1.20573,1.77984 -1.71438,2.27163 l -0.92481,0.89416 -1.00452,-0.82802 c -1.1417,-0.94108 -2.36724,-1.20695 -1.58642,-0.34415 0.24083,0.26612 0.43788,0.67581 0.43788,0.91042 0,0.23462 0.11906,0.50016 0.26458,0.5901 0.30611,0.18918 0.34845,1.45808 0.0621,1.86105 -0.55006,0.77409 -2.77179,2.28352 -3.54464,2.4082 -0.70206,0.11327 -1.00511,0.0122 -1.4784,-0.49294 z m -6.30899,-4.46555 c -0.40522,-0.44776 -0.50403,-0.96265 -0.50403,-2.62643 0,-2.48011 0.55414,-3.5085 1.96566,-3.648 0.63628,-0.0629 0.81572,-0.18686 0.70144,-0.48466 -0.0845,-0.22009 -0.15355,-0.44456 -0.15355,-0.49882 0,-0.0543 -0.41672,-0.17684 -0.92605,-0.27239 -0.50932,-0.0956 -0.92604,-0.19662 -0.92604,-0.22459 0,-0.3503 1.95213,-5.69564 2.35049,-6.43612 0.29433,-0.54712 1.0189,-2.48984 1.61015,-4.31717 1.16836,-3.61091 2.50976,-6.06369 3.58381,-6.55306 0.37539,-0.17104 1.20213,-0.31098 1.83719,-0.31098 0.97358,0 1.2661,0.13244 1.86532,0.84458 0.90416,1.07452 0.80708,1.79898 -0.80313,5.99335 -0.65088,1.69543 -1.18341,3.26851 -1.18341,3.49573 0,0.22721 -0.15378,0.62343 -0.34174,0.88048 -0.32423,0.4434 -0.39958,0.44422 -1.46972,0.016 -0.86153,-0.34472 -1.38512,-0.39629 -2.21664,-0.21835 -1.24486,0.26639 -1.57996,0.76812 -0.68282,1.02234 1.20386,0.34113 3.388,1.25979 3.388,1.42501 0,0.0927 -0.22209,0.94515 -0.49353,1.89433 -0.88052,3.07903 -2.30803,5.2341 -3.00522,4.53691 -0.17119,-0.17118 -0.4883,-0.31125 -0.70471,-0.31125 -0.26969,0 -0.16223,0.24136 0.34161,0.76725 l 0.73506,0.76724 -0.56745,1.28328 c -0.6327,1.4308 -1.6324,2.59666 -2.70876,3.15898 -0.94075,0.49147 -1.09619,0.4746 -1.69193,-0.18369 z m -18.21423,-2.68746 c -0.43413,-0.66256 -1.1222,-3.45028 -1.25457,-5.08286 -0.0762,-0.93987 -0.001,-1.09403 0.70852,-1.45521 l 0.79375,-0.40398 -1.12217,-0.0813 c -1.00672,-0.0729 -1.1878,-0.19539 -1.76,-1.19063 -0.83472,-1.45184 -1.04828,-2.56485 -0.82896,-4.32025 0.12072,-0.96619 0.36767,-1.61287 0.75466,-1.97619 l 0.57522,-0.54005 -0.7276,0.18026 c -0.55005,0.13627 -0.7276,0.0836 -0.7276,-0.2159 0,-0.21788 0.14882,-0.39063 0.33073,-0.38387 1.75645,0.0652 2.11722,-0.52671 0.39687,-0.65118 l -1.12448,-0.0814 v -2.03175 c 0,-2.83092 0.87292,-3.99312 2.66195,-3.5441 0.95127,0.23876 1.35441,1.33165 1.51998,4.12064 0.10768,1.81377 0.34668,3.02916 0.85846,4.36563 0.41217,1.07632 0.73996,2.51701 0.78257,3.43958 0.0403,0.87312 0.21188,1.94028 0.38122,2.37147 0.58925,1.50044 0.86303,3.38731 0.75889,5.23027 -0.0875,1.5486 -0.20614,1.93671 -0.71897,2.35197 -0.83165,0.67343 -1.77871,0.63098 -2.25847,-0.10124 z m 8.54944,-0.43299 c -0.56221,-0.45525 -0.62082,-0.71378 -0.62462,-2.75551 -0.004,-1.95842 0.0777,-2.364 0.62219,-3.10081 0.34773,-0.47057 0.5157,-0.92203 0.37758,-1.0148 -0.13685,-0.0919 -0.3143,-0.34579 -0.39434,-0.56418 -0.17134,-0.4675 0.20571,-7.19201 0.44125,-7.86948 0.0889,-0.25559 0.6274,-0.82189 1.19674,-1.25845 0.56934,-0.43656 1.04068,-0.86817 1.04742,-0.95912 0.007,-0.0909 -0.35008,-0.23783 -0.79292,-0.3264 l -0.80518,-0.16103 0.16635,-2.05485 c 0.22616,-2.79362 0.81911,-5.09385 1.49989,-5.81851 0.88424,-0.94123 2.65421,-0.843 3.7027,0.2055 l 0.80747,0.80747 -0.12138,2.72933 c -0.0975,2.19162 -0.24753,2.98383 -0.76168,4.02118 -0.42294,0.85331 -0.77501,1.25502 -1.03716,1.18336 -1.04749,-0.28633 -2.11667,-0.32185 -2.11667,-0.0703 0,0.15178 0.32742,0.32556 0.7276,0.38618 0.52206,0.0791 0.41606,0.12142 -0.37523,0.14987 -1.216,0.0437 -1.93987,0.25334 -1.93987,0.56179 0,0.11052 0.80367,0.14387 1.78594,0.0741 1.56972,-0.11148 1.84642,-0.0597 2.28557,0.42735 0.41717,0.46272 0.47577,0.82791 0.35503,2.21268 -0.0795,0.91218 -0.39844,2.46217 -0.7087,3.44444 l -0.5641,1.78594 h -1.02607 c -1.1795,0 -1.86309,0.21049 -1.86309,0.57368 0,0.14855 0.48036,0.18046 1.16682,0.0775 0.64175,-0.0962 1.3753,-0.0583 1.63012,0.0843 0.36225,0.20272 0.22046,0.26263 -0.6501,0.27464 -1.31028,0.0181 -2.94059,0.5068 -2.94059,0.8815 0,0.16337 0.53178,0.19666 1.40293,0.0878 1.83694,-0.22951 2.17606,0.1294 1.92321,2.03545 -0.4757,3.58603 -2.56208,5.45147 -4.41711,3.94936 z"
           id="path834"
           inkscape:connector-curvature="0" />
        <path
           style="fill:#ff0000;stroke:#ff0000;stroke-width:5;stroke-linecap:butt;stroke-linejoin:miter;stroke-miterlimit:4;stroke-dasharray:none;stroke-opacity:1"
           d="m -109.23512,298.88988 -62.55506,62.55505"
           id="path840"
           inkscape:connector-curvature="0" />
      </g>
    </g>
    <path
       style="fill:none;stroke:#ffffff;stroke-width:5;stroke-linecap:butt;stroke-linejoin:miter;stroke-miterlimit:4;stroke-dasharray:none;stroke-opacity:1"
       d="M 9.7534376,96.342019 H 288.78282 V 288.77608 H 9.2188987 Z"
       id="path878"
       inkscape:connector-curvature="0" />
  </g>
</svg>
